<svg width="144" height="20" fill="none" xmlns="http://www.w3.org/2000/svg"><path d="M8.2.6h3.4l2 6.1L15.9.6h3.3L16 9l2.4 5.9L23.5.5h3.9L20 19h-3l-3.3-7.7-3.2 7.7H7.4L0 .5h3.8L9.1 15l2.3-6L8.2.7Zm26 18.7c-1 0-2-.2-3-.6a7 7 0 0 1-3.7-3.8c-.3-.8-.4-1.7-.4-2.6 0-1.3.2-2.5.8-3.6.6-1 1.4-2 2.5-2.6 1.1-.6 2.4-1 3.9-1a7 7 0 0 1 3.8 1 7.1 7.1 0 0 1 3.2 7.2H30.7c.1.7.3 1.3.6 1.8.4.5.8 1 1.3 1.2.6.3 1.2.4 1.8.4a4 4 0 0 0 2-.5c.5-.3 1-.8 1.2-1.3l3 .8c-.4.7-.8 1.3-1.5 1.8-.6.6-1.3 1-2.1 1.3-.8.3-1.8.5-2.8.5ZM30.7 11h7a4 4 0 0 0-.5-1.8c-.3-.5-.7-1-1.3-1.2-.5-.3-1-.4-1.7-.4a3.4 3.4 0 0 0-3 1.6c-.3.5-.5 1.1-.5 1.8ZM52 19.3c-1 0-2-.3-2.8-.7a5.1 5.1 0 0 1-1.9-2V19h-3V0h3.4v7.8c.5-.8 1.2-1.5 2-2 .7-.4 1.7-.7 2.7-.7.9 0 1.7.2 2.4.6.8.4 1.4.9 2 1.5A8.3 8.3 0 0 1 58 15c-.4 1-.9 1.7-1.4 2.3-.6.7-1.3 1.2-2 1.5a6 6 0 0 1-2.6.6Zm-1-3a3.6 3.6 0 0 0 2.7-1.2c.4-.4.7-.8.8-1.3l.3-1.5a4.5 4.5 0 0 0-1.7-3.6 3 3 0 0 0-1.9-.6c-.5 0-1 .1-1.4.4a4.2 4.2 0 0 0-2 2.3V14c0 .4.2.7.4 1A4.2 4.2 0 0 0 50 16l1 .2Z" fill="#2196F3"/><path d="m72.8 5.4-.6-.5-1.2-.6a10.6 10.6 0 0 0-3.1-.7c-1 0-1.7.1-2.2.5-.5.4-.8.9-.8 1.5 0 .5.2 1 .5 1.2.3.3.8.6 1.4.8l2.4.7c1.2.3 2.2.6 3.1 1 .9.5 1.6 1 2 1.7.5.7.8 1.6.8 2.7 0 1-.2 1.9-.6 2.6-.3.7-.8 1.2-1.5 1.7a7 7 0 0 1-2.2 1l-2.6.2a13.5 13.5 0 0 1-7.7-2.4l1.6-3 .8.5a13.9 13.9 0 0 0 3.3 1.4l2.1.3a4 4 0 0 0 2.2-.5c.5-.3.8-.8.8-1.4 0-.6-.2-1-.6-1.3a52.8 52.8 0 0 0-4.2-1.6l-3-1c-.7-.5-1.3-1-1.7-1.7-.4-.6-.5-1.4-.5-2.3 0-1.3.2-2.3.8-3.2.6-.8 1.5-1.5 2.5-2a10 10 0 0 1 5.9-.4 12 12 0 0 1 4 1.9l-1.7 2.9Zm13.3 12.9a36.8 36.8 0 0 1-2.4.8l-1.5.1c-.6 0-1.2 0-1.7-.3-.6-.2-1-.6-1.3-1-.3-.6-.5-1.2-.5-2V8H77V5.4h1.8V1h3.5v4.4h2.9V8h-2.9v6.6c0 .5.1.8.4 1 .2.2.5.3.9.3l1-.1.9-.4.7 2.8Zm2.5-4.4V5.4H92v7.8c0 1 .2 1.8.6 2.3.4.5 1 .8 1.7.8a3.5 3.5 0 0 0 2.6-1.1c.3-.4.7-.8 1-1.4V5.4h3.4V15c0 .4 0 .6.2.8l.6.3V19a11.7 11.7 0 0 1-1.5.2c-.6 0-1.1-.2-1.5-.5-.4-.3-.6-.7-.7-1.2v-1a6 6 0 0 1-2.4 2 7 7 0 0 1-3.1.8c-1.5 0-2.5-.5-3.2-1.4-.8-1-1.1-2.2-1.1-4Zm16.1-1.7a8 8 0 0 1 .8-3.6c.5-1 1.2-1.9 2.1-2.5a5.5 5.5 0 0 1 7.8 1.7V0h3.5v15.1c0 .4 0 .6.2.8l.6.3V19l-1.5.2c-.6 0-1.1-.2-1.6-.5-.4-.3-.6-.7-.6-1.2v-.9a5 5 0 0 1-2.1 2c-.9.4-1.8.7-2.7.7a6.2 6.2 0 0 1-4.7-2 7.3 7.3 0 0 1-1.8-5.1Zm10.7 1.8v-3.2l-.8-1.4-1.3-1a3 3 0 0 0-2.9 0 3.9 3.9 0 0 0-1.8 2.3 5.3 5.3 0 0 0 0 3.2 3.9 3.9 0 0 0 2 2 3.7 3.7 0 0 0 2.5.2c.3 0 .7-.2 1-.4a3.6 3.6 0 0 0 1.3-1.7Zm7.7 5V5.4h3.5V19H123Zm0-15.5V0h3.5v3.5H123Zm13.7 15.8c-1.1 0-2.1-.2-3-.6a6.8 6.8 0 0 1-4.2-6.5 7.4 7.4 0 0 1 2-5c.6-.6 1.3-1.1 2.2-1.5.9-.4 1.9-.6 3-.6a7.3 7.3 0 0 1 5.2 2.1 7.4 7.4 0 0 1 0 10c-.6.6-1.3 1.1-2.2 1.5-1 .4-2 .6-3 .6Zm-3.6-7c0 .7.2 1.4.5 2 .3.7.7 1.1 1.3 1.5.5.3 1.1.5 1.8.5.6 0 1.2-.2 1.8-.5.5-.4 1-.9 1.2-1.5.4-.6.5-1.3.5-2.1s-.1-1.5-.5-2.1c-.3-.6-.7-1.1-1.2-1.5-.6-.3-1.2-.5-1.8-.5-.7 0-1.3.2-1.8.6-.6.3-1 .8-1.3 1.4-.3.6-.5 1.3-.5 2.1Z" fill="#000"/></svg>