<svg width="136" height="16" viewBox="0 0 136 16" fill="none" xmlns="http://www.w3.org/2000/svg">
<path d="M6.94406 3.75781C6.94406 3.32552 6.77479 2.98698 6.43625 2.74219C6.09771 2.49219 5.64979 2.36719 5.0925 2.36719C4.5925 2.36719 4.17583 2.49219 3.8425 2.74219C3.51437 2.98698 3.35031 3.30729 3.35031 3.70312H1.00656C1.00656 3.08854 1.17844 2.53646 1.52219 2.04688C1.87114 1.55208 2.36333 1.16667 2.99875 0.890625C3.63937 0.614583 4.33729 0.476562 5.0925 0.476562C6.405 0.476562 7.43364 0.757812 8.17844 1.32031C8.92323 1.88281 9.29562 2.67969 9.29562 3.71094C9.29562 4.21615 9.14198 4.6849 8.83469 5.11719C8.5326 5.54948 8.10031 5.89583 7.53781 6.15625C8.16281 6.375 8.64198 6.70833 8.97531 7.15625C9.30864 7.59896 9.47531 8.15104 9.47531 8.8125C9.47531 9.83333 9.07427 10.6458 8.27219 11.25C7.47531 11.849 6.41542 12.1484 5.0925 12.1484C4.26437 12.1484 3.51958 12.0078 2.85812 11.7266C2.19667 11.4401 1.69406 11.0521 1.35031 10.5625C1.01177 10.0677 0.842499 9.49479 0.842499 8.84375H3.20187C3.20187 9.25 3.37896 9.59115 3.73312 9.86719C4.08729 10.138 4.54042 10.2734 5.0925 10.2734C5.7175 10.2734 6.20969 10.1328 6.56906 9.85156C6.93364 9.57031 7.11594 9.21354 7.11594 8.78125C7.11594 8.1875 6.95448 7.76302 6.63156 7.50781C6.30864 7.2474 5.83729 7.11719 5.2175 7.11719H3.81906V5.28125H5.26437C6.38417 5.26562 6.94406 4.75781 6.94406 3.75781ZM16.9197 12C16.8155 11.7969 16.74 11.5443 16.6931 11.2422C16.1462 11.8516 15.4353 12.1562 14.5603 12.1562C13.7322 12.1562 13.0447 11.9167 12.4978 11.4375C11.9561 10.9583 11.6853 10.3542 11.6853 9.625C11.6853 8.72917 12.016 8.04167 12.6775 7.5625C13.3442 7.08333 14.3051 6.84115 15.5603 6.83594H16.5994V6.35156C16.5994 5.96094 16.4978 5.64844 16.2947 5.41406C16.0968 5.17969 15.7817 5.0625 15.3494 5.0625C14.9692 5.0625 14.6697 5.15365 14.4509 5.33594C14.2374 5.51823 14.1306 5.76823 14.1306 6.08594H11.8728C11.8728 5.59635 12.0239 5.14323 12.3259 4.72656C12.628 4.3099 13.0551 3.98438 13.6072 3.75C14.1593 3.51042 14.7791 3.39062 15.4666 3.39062C16.5082 3.39062 17.3337 3.65365 17.9431 4.17969C18.5577 4.70052 18.865 5.4349 18.865 6.38281V10.0469C18.8702 10.849 18.9822 11.4557 19.2009 11.8672V12H16.9197ZM15.0525 10.4297C15.3858 10.4297 15.6931 10.3568 15.9744 10.2109C16.2556 10.0599 16.464 9.85938 16.5994 9.60938V8.15625H15.7556C14.6254 8.15625 14.0239 8.54688 13.9509 9.32812L13.9431 9.46094C13.9431 9.74219 14.0421 9.97396 14.24 10.1562C14.4379 10.3385 14.7087 10.4297 15.0525 10.4297ZM24.8719 8.88281H23.9656V12H21.7078V3.54688H23.9656V6.72656H24.7703L26.6141 3.54688H29.4656L26.7 7.57031L29.7234 12H26.7156L24.8719 8.88281ZM36.4334 12C36.3293 11.7969 36.2537 11.5443 36.2069 11.2422C35.66 11.8516 34.9491 12.1562 34.0741 12.1562C33.2459 12.1562 32.5584 11.9167 32.0116 11.4375C31.4699 10.9583 31.1991 10.3542 31.1991 9.625C31.1991 8.72917 31.5298 8.04167 32.1912 7.5625C32.8579 7.08333 33.8189 6.84115 35.0741 6.83594H36.1131V6.35156C36.1131 5.96094 36.0116 5.64844 35.8084 5.41406C35.6105 5.17969 35.2954 5.0625 34.8631 5.0625C34.4829 5.0625 34.1834 5.15365 33.9647 5.33594C33.7511 5.51823 33.6444 5.76823 33.6444 6.08594H31.3866C31.3866 5.59635 31.5376 5.14323 31.8397 4.72656C32.1418 4.3099 32.5689 3.98438 33.1209 3.75C33.673 3.51042 34.2928 3.39062 34.9803 3.39062C36.022 3.39062 36.8475 3.65365 37.4569 4.17969C38.0715 4.70052 38.3787 5.4349 38.3787 6.38281V10.0469C38.384 10.849 38.4959 11.4557 38.7147 11.8672V12H36.4334ZM34.5662 10.4297C34.8996 10.4297 35.2069 10.3568 35.4881 10.2109C35.7694 10.0599 35.9777 9.85938 36.1131 9.60938V8.15625H35.2694C34.1392 8.15625 33.5376 8.54688 33.4647 9.32812L33.4569 9.46094C33.4569 9.74219 33.5558 9.97396 33.7537 10.1562C33.9517 10.3385 34.2225 10.4297 34.5662 10.4297ZM45.5106 6.03906C45.5106 5.74219 45.4117 5.51302 45.2137 5.35156C45.021 5.1849 44.745 5.10156 44.3856 5.10156C44.0158 5.10156 43.7137 5.17969 43.4794 5.33594C43.2502 5.48698 43.1356 5.70312 43.1356 5.98438H40.8778C40.8778 5.21875 41.1955 4.59635 41.8309 4.11719C42.4664 3.63802 43.2789 3.39844 44.2684 3.39844C45.357 3.39844 46.2111 3.61198 46.8309 4.03906C47.4559 4.46615 47.7684 5.07292 47.7684 5.85938C47.7684 6.23438 47.6539 6.58073 47.4247 6.89844C47.2007 7.21094 46.883 7.46094 46.4716 7.64844C47.4351 7.98698 47.9169 8.64062 47.9169 9.60938C47.9169 10.3854 47.5835 11.0052 46.9169 11.4688C46.2554 11.9271 45.3726 12.1562 44.2684 12.1562C43.2424 12.1562 42.3986 11.9167 41.7372 11.4375C41.0757 10.9583 40.745 10.3125 40.745 9.5H43.0028C43.0028 9.78646 43.1304 10.0182 43.3856 10.1953C43.6408 10.3724 43.9742 10.4609 44.3856 10.4609C44.7867 10.4609 45.0992 10.3672 45.3231 10.1797C45.5471 9.99219 45.6591 9.7474 45.6591 9.44531C45.6591 9.07552 45.5523 8.8125 45.3387 8.65625C45.1252 8.49479 44.8049 8.41406 44.3778 8.41406H43.1512V6.94531H44.4559C45.1591 6.92448 45.5106 6.6224 45.5106 6.03906ZM55.1503 12C55.0461 11.7969 54.9706 11.5443 54.9237 11.2422C54.3769 11.8516 53.6659 12.1562 52.7909 12.1562C51.9628 12.1562 51.2753 11.9167 50.7284 11.4375C50.1868 10.9583 49.9159 10.3542 49.9159 9.625C49.9159 8.72917 50.2467 8.04167 50.9081 7.5625C51.5748 7.08333 52.5357 6.84115 53.7909 6.83594H54.83V6.35156C54.83 5.96094 54.7284 5.64844 54.5253 5.41406C54.3274 5.17969 54.0123 5.0625 53.58 5.0625C53.1998 5.0625 52.9003 5.15365 52.6816 5.33594C52.468 5.51823 52.3612 5.76823 52.3612 6.08594H50.1034C50.1034 5.59635 50.2545 5.14323 50.5566 4.72656C50.8586 4.3099 51.2857 3.98438 51.8378 3.75C52.3899 3.51042 53.0097 3.39062 53.6972 3.39062C54.7389 3.39062 55.5644 3.65365 56.1737 4.17969C56.7883 4.70052 57.0956 5.4349 57.0956 6.38281V10.0469C57.1008 10.849 57.2128 11.4557 57.4316 11.8672V12H55.1503ZM53.2831 10.4297C53.6165 10.4297 53.9237 10.3568 54.205 10.2109C54.4862 10.0599 54.6946 9.85938 54.83 9.60938V8.15625H53.9862C52.856 8.15625 52.2545 8.54688 52.1816 9.32812L52.1737 9.46094C52.1737 9.74219 52.2727 9.97396 52.4706 10.1562C52.6685 10.3385 52.9394 10.4297 53.2831 10.4297ZM66.6806 5.35938H63.9697V12H61.7041V5.35938H59.04V3.54688H66.6806V5.35938ZM71.1953 6.02344H72.8125C73.5417 6.02344 74.1823 6.14583 74.7344 6.39062C75.2865 6.63542 75.7083 6.98698 76 7.44531C76.2969 7.89844 76.4453 8.42708 76.4453 9.03125C76.4453 9.92188 76.1146 10.6406 75.4531 11.1875C74.7969 11.7292 73.901 12 72.7656 12H68.9297V3.54688H71.1953V6.02344ZM71.1953 7.83594V10.1953H72.7969C73.2448 10.1953 73.5885 10.0911 73.8281 9.88281C74.0677 9.67448 74.1875 9.39062 74.1875 9.03125C74.1875 8.66667 74.0703 8.3776 73.8359 8.16406C73.6016 7.94531 73.2552 7.83594 72.7969 7.83594H71.1953ZM86.7794 8.80469L88.3419 3.54688H90.7637L87.3653 13.3125L87.1778 13.7578C86.6726 14.862 85.8393 15.4141 84.6778 15.4141C84.3497 15.4141 84.0164 15.3646 83.6778 15.2656V13.5547L84.0216 13.5625C84.4486 13.5625 84.7664 13.4974 84.9747 13.3672C85.1882 13.237 85.3549 13.0208 85.4747 12.7188L85.7403 12.0234L82.7794 3.54688H85.2091L86.7794 8.80469ZM96.0206 10.3359C96.4373 10.3359 96.7758 10.2214 97.0362 9.99219C97.2967 9.76302 97.4321 9.45833 97.4425 9.07812H99.5597C99.5545 9.65104 99.3982 10.1771 99.0909 10.6562C98.7836 11.1302 98.3618 11.5 97.8253 11.7656C97.2941 12.026 96.7055 12.1562 96.0597 12.1562C94.8514 12.1562 93.8982 11.7734 93.2003 11.0078C92.5024 10.237 92.1534 9.17448 92.1534 7.82031V7.67188C92.1534 6.36979 92.4998 5.33073 93.1925 4.55469C93.8852 3.77865 94.8357 3.39062 96.0441 3.39062C97.1014 3.39062 97.9477 3.69271 98.5831 4.29688C99.2237 4.89583 99.5493 5.69531 99.5597 6.69531H97.4425C97.4321 6.25781 97.2967 5.90365 97.0362 5.63281C96.7758 5.35677 96.4321 5.21875 96.005 5.21875C95.479 5.21875 95.0805 5.41146 94.8097 5.79688C94.5441 6.17708 94.4112 6.79688 94.4112 7.65625V7.89062C94.4112 8.76042 94.5441 9.38542 94.8097 9.76562C95.0753 10.1458 95.479 10.3359 96.0206 10.3359ZM109.16 3.54688V12H106.902V5.375H104.91L104.77 7.98438C104.681 9.375 104.408 10.388 103.949 11.0234C103.491 11.6589 102.809 11.9844 101.902 12H101.137L101.113 10.1641L101.395 10.1406C101.801 10.1094 102.098 9.86979 102.285 9.42188C102.473 8.97396 102.59 8.21094 102.637 7.13281L102.793 3.54688H109.16ZM115.019 8.80469L116.581 3.54688H119.003L115.605 13.3125L115.417 13.7578C114.912 14.862 114.079 15.4141 112.917 15.4141C112.589 15.4141 112.256 15.3646 111.917 15.2656V13.5547L112.261 13.5625C112.688 13.5625 113.006 13.4974 113.214 13.3672C113.428 13.237 113.594 13.0208 113.714 12.7188L113.98 12.0234L111.019 3.54688H113.448L115.019 8.80469ZM126.612 5.375H123.112V12H120.854V3.54688H126.612V5.375ZM131.673 8.80469L133.236 3.54688H135.658L132.259 13.3125L132.072 13.7578C131.566 14.862 130.733 15.4141 129.572 15.4141C129.243 15.4141 128.91 15.3646 128.572 15.2656V13.5547L128.915 13.5625C129.342 13.5625 129.66 13.4974 129.868 13.3672C130.082 13.237 130.249 13.0208 130.368 12.7188L130.634 12.0234L127.673 3.54688H130.103L131.673 8.80469Z" fill="white"/>
</svg>
